<?xml version="1.0" standalone="no"?><!DOCTYPE svg PUBLIC "-//W3C//DTD SVG 1.1//EN" "http://www.w3.org/Graphics/SVG/1.1/DTD/svg11.dtd"><svg class="icon" width="32px" height="32.00px" viewBox="0 0 1024 1024" version="1.1" xmlns="http://www.w3.org/2000/svg"><path fill="currentColor" d="M512 981.333333a469.333333 469.333333 0 1 1 469.333333-469.333333 469.333333 469.333333 0 0 1-469.333333 469.333333z m0-853.333333a384 384 0 1 0 384 384 384 384 0 0 0-384-384zM341.333333 768a42.666667 42.666667 0 0 1-30.293333-12.373333 42.666667 42.666667 0 0 1 0-60.586667l183.466667-183.04-183.466667-183.04a42.666667 42.666667 0 1 1 60.586667-60.586667l213.333333 213.333334a42.666667 42.666667 0 0 1 0 60.586666l-213.333333 213.333334A42.666667 42.666667 0 0 1 341.333333 768zM682.666667 725.333333a42.666667 42.666667 0 0 1-42.666667-42.666666V341.333333a42.666667 42.666667 0 0 1 85.333333 0v341.333334a42.666667 42.666667 0 0 1-42.666666 42.666666z" /></svg>
