<?xml version="1.0" standalone="no"?><!DOCTYPE svg PUBLIC "-//W3C//DTD SVG 1.1//EN" "http://www.w3.org/Graphics/SVG/1.1/DTD/svg11.dtd"><svg class="icon" width="32px" height="32.00px" viewBox="0 0 1024 1024" version="1.1" xmlns="http://www.w3.org/2000/svg"><path fill="currentColor" d="M512 981.333333a469.333333 469.333333 0 1 1 469.333333-469.333333 469.333333 469.333333 0 0 1-469.333333 469.333333z m0-853.333333a384 384 0 1 0 384 384 384 384 0 0 0-384-384zM384 768a38.826667 38.826667 0 0 1-20.48-5.546667A42.666667 42.666667 0 0 1 341.333333 725.333333V298.666667a42.666667 42.666667 0 0 1 65.28-36.266667l341.333334 213.333333a42.666667 42.666667 0 0 1 0 72.533334l-341.333334 213.333333A42.666667 42.666667 0 0 1 384 768z m42.666667-392.533333v273.066666l218.026666-136.533333z" /></svg>
